<svg viewBox="0 0 470 132" xmlns="http://www.w3.org/2000/svg" role="img" aria-label="Amaely"><defs>
  <linearGradient id="aGrad" x1="30" y1="25" x2="90" y2="97" gradientUnits="userSpaceOnUse">
    <stop offset="0" stop-color="#FF6F91"/><stop offset="0.52" stop-color="#FF7A59"/><stop offset="1" stop-color="#FFC07A"/>
  </linearGradient>
  <linearGradient id="aWhite" x1="30" y1="25" x2="90" y2="97" gradientUnits="userSpaceOnUse">
    <stop offset="0" stop-color="#FFFFFF"/><stop offset="1" stop-color="#FFF1E6"/>
  </linearGradient>
  <filter id="soft" x="-60%" y="-60%" width="220%" height="220%"><feGaussianBlur stdDeviation="3.2"/></filter>
  <filter id="sparkGlow" x="-120%" y="-120%" width="340%" height="340%"><feGaussianBlur stdDeviation="2.4"/></filter>
</defs>
  <g transform="translate(4,6) scale(0.95)"><g filter="url(#soft)" opacity="0.85"><path d="M30,97 L60,25 L90,97" fill="none" stroke="url(#aGrad)" stroke-width="13" stroke-linecap="round" stroke-linejoin="round"/></g>
    <path d="M30,97 L60,25 L90,97" fill="none" stroke="url(#aGrad)" stroke-width="13" stroke-linecap="round" stroke-linejoin="round"/>
    <path d="M40,72 L55,72 L57.2,75 L60,63 L62.8,76 L65,72 L80,72" fill="none" stroke="#FF2E63" stroke-width="6.0" stroke-linecap="round" stroke-linejoin="round"/>
    <g filter="url(#sparkGlow)"><path d="M60,19 C60,25.4 60.9,26.3 67,27 C60.9,27.7 60,28.6 60,35 C60,28.6 59.1,27.7 53,27 C59.1,26.3 60,25.4 60,19 Z" fill="#FFE6BD"/></g>
    <circle cx="60" cy="27" r="2.1" fill="#FFFFFF"/></g>
  <text x="140" y="86" font-family="Plus Jakarta Sans, sans-serif" font-weight="600" font-size="64" letter-spacing="-1.6" fill="#2A1F2E">Amaely</text>
</svg>